# xmcd CD database file
#
# Track frame offsets:
#	150
#	21230
#	33300
#	48080
#	71325
#	94787
#	111047
#	136227
#	149950
#	168290
#	186942
#	239107
#	261870
#
# Disc length: 3751 seconds
#
# Revision: 0
# Processed by: cddbd v1.5.2PL0 Copyright (c) Steve Scherf et al.
# Submitted via: CDex 1.50beta10
#
DISCID=bb0ea50d
DTITLE=Duke Ellington and His Orchestra - Best Selection
DYEAR=1900
DGENRE=Jazz
TTITLE0=Take The "A"Train
TTITLE1=I Got It Bad(And That Ain't Good)
TTITLE2=Perdido
TTITLE3=Mood Indigo
TTITLE4=Black And Tan Fantasy
TTITLE5=Solitude
TTITLE6=The Mooch
TTITLE7=Sophisticated Lady
TTITLE8=Creole Love Call
TTITLE9=Isfahan
TTITLE10=Adlib On Nippon
TTITLE11=Lotus Blossom
TTITLE12=Day Dream
EXTD=
EXTT0=
EXTT1=
EXTT2=
EXTT3=
EXTT4=
EXTT5=
EXTT6=
EXTT7=
EXTT8=
EXTT9=
EXTT10=
EXTT11=
EXTT12=
PLAYORDER=
